Coordinates
version=1
nRows=26
nColumns=24
inDegrees=yes

Units are S.I. units (second, meters, Newtons, ...)
Angles are in degrees.

endheader
time	pelvis_tilt	pelvis_list	pelvis_rotation	pelvis_tx	pelvis_ty	pelvis_tz	hip_flexion_r	hip_adduction_r	hip_rotation_r	knee_angle_r	ankle_angle_r	subtalar_angle_r	mtp_angle_r	hip_flexion_l	hip_adduction_l	hip_rotation_l	knee_angle_l	ankle_angle_l	subtalar_angle_l	mtp_angle_l	lumbar_extension	lumbar_bending	lumbar_rotation
      4.38000000	      3.27859971	     -1.61686929	      2.39268710	     -2.66066786	      0.91540262	      0.19898901	     15.84558470	      2.53417455	     -9.23080998	      1.47789394	      5.10172698	      2.79594817	      0.00000000	    -15.21956788	      1.52291581	      6.20418486	     -9.86415398	     18.24992590	     -6.49573031	      0.00000000	    -21.27424513	      2.97632096	     -1.41143009
      4.39000000	      3.52115582	     -1.78857128	      2.38418460	     -2.65057065	      0.91513570	      0.20084644	     15.56077497	      2.80521386	     -7.97978448	      0.50962429	      4.06374908	      1.98288644	      0.00000000	    -15.71657480	      1.22169435	      5.93752208	    -10.69801919	     18.13610552	     -6.26766220	      0.00000000	    -21.44898260	      3.15021890	     -1.35201916
      4.40000000	      3.84204724	     -2.04026666	      2.35847042	     -2.64033711	      0.91523372	      0.20277293	     15.12904504	      3.20114636	     -6.76104950	     -0.36982141	      2.82402532	      1.17690852	      0.00000000	    -16.24376194	      0.83678144	      5.68972398	    -11.63359528	     17.78814729	     -6.15265702	      0.00000000	    -21.69687860	      3.42435502	     -1.27467824
      4.41000000	      4.08091980	     -2.34047709	      2.29865513	     -2.63005159	      0.91551032	      0.20477324	     14.73922596	      3.67816192	     -5.44408446	     -1.16038914	      1.28863043	      0.03783367	      0.00000000	    -16.54489794	      0.41143801	      5.31884420	    -12.82236024	     17.32851421	     -5.92145614	      0.00000000	    -21.82669397	      3.74840243	     -1.12332222
      4.42000000	      4.30400867	     -2.68151548	      2.21223344	     -2.61973851	      0.91609651	      0.20681472	     14.36025633	      4.21367400	     -4.28765421	     -1.94126832	     -0.19244656	     -0.99320558	      0.00000000	    -16.68865356	     -0.05365260	      4.80579153	    -14.25243341	     16.70054349	     -5.59029851	      0.00000000	    -21.93189913	      4.11145462	     -0.92015585
      4.43000000	      4.55899290	     -3.05923486	      2.09621080	     -2.60940279	      0.91705200	      0.20887393	     13.95200727	      4.79308523	     -3.41444142	     -2.74544089	     -1.43296632	     -1.71337761	      0.00000000	    -16.71247166	     -0.56043812	      4.08655538	    -15.94011553	     15.90556199	     -5.12773026	      0.00000000	    -22.06658697	      4.51710084	     -0.69980828
      4.44000000	      4.81251073	     -3.43605831	      1.93868320	     -2.59908351	      0.91829747	      0.21095983	     13.56306475	      5.36651494	     -2.83261282	     -3.61382503	     -2.28891083	     -2.04424368	      0.00000000	    -16.56161445	     -1.07512818	      3.13320854	    -17.90372107	     14.91243468	     -4.59080300	      0.00000000	    -22.19803775	      4.91145881	     -0.45659809
      4.45000000	      4.98544705	     -3.76417157	      1.77494936	     -2.58883043	      0.91966841	      0.21304511	     13.27118274	      5.86845030	     -2.51193266	     -4.53712395	     -2.79158623	     -2.23438185	      0.00000000	    -16.12221960	     -1.56734390	      2.02442712	    -20.16801013	     13.64731168	     -4.06008624	      0.00000000	    -22.22848268	      5.24046249	     -0.23969179
      4.46000000	      5.14877916	     -4.05020833	      1.61684156	     -2.57864948	      0.92119458	      0.21513315	     12.96370548	      6.30567798	     -2.40933844	     -5.44812095	     -2.94660766	     -2.25262982	      0.00000000	    -15.48421370	     -2.06687517	      0.77740783	    -22.68291609	     12.07742865	     -3.56616232	      0.00000000	    -22.25197116	      5.51526336	     -0.06794140
      4.47000000	      5.30278118	     -4.29043352	      1.47755571	     -2.56857459	      0.92280982	      0.21722291	     12.61388555	      6.67551403	     -2.45601212	     -6.28619232	     -2.85652254	     -2.15863522	      0.00000000	    -14.66283011	     -2.57718920	     -0.51996372	    -25.39120422	     10.09896083	     -3.32434205	      0.00000000	    -22.27393127	      5.73067742	      0.07668188
      4.48000000	      5.39024739	     -4.50082731	      1.39596059	     -2.55865586	      0.92436979	      0.21929211	     12.30784603	      6.97726861	     -2.92813745	     -7.06866989	     -2.28484248	     -1.55687482	      0.00000000	    -13.57791968	     -3.14503054	     -1.83635805	    -28.30099200	      7.80329210	     -3.22303712	      0.00000000	    -22.23240145	      5.90253738	      0.11169642
      4.49000000	      5.46232380	     -4.66906883	      1.33535113	     -2.54890605	      0.92588529	      0.22134700	     11.92998841	      7.24288808	     -3.18062730	     -7.69795105	     -1.67624087	     -1.23974754	      0.00000000	    -12.36329265	     -3.70097389	     -2.99752208	    -31.24971705	      4.95471488	     -3.72224526	      0.00000000	    -22.20193017	      6.02328449	      0.12058909
      4.50000000	      5.54636149	     -4.83249114	      1.31530792	     -2.53933982	      0.92736141	      0.22334159	     11.47675591	      7.50316151	     -3.47408431	     -8.19911852	     -0.96675888	     -0.86435106	      0.00000000	    -11.06068994	     -4.28906242	     -4.01786773	    -34.20633571	      1.70437815	     -4.67434477	      0.00000000	    -22.22327963	      6.14176117	      0.10878623
      4.51000000	      5.65678027	     -5.00808626	      1.34065092	     -2.52995361	      0.92879782	      0.22522830	     10.93913616	      7.77816849	     -3.81278605	     -8.57947313	     -0.18868812	     -0.34509142	      0.00000000	     -9.71417762	     -4.90255492	     -4.84637369	    -37.12024867	     -1.82119724	     -6.05461443	      0.00000000	    -22.31389677	      6.28737858	      0.05722941
      4.52000000	      5.73276416	     -5.15855474	      1.37668041	     -2.52077100	      0.93009264	      0.22701342	     10.39137092	      8.04846856	     -3.94768647	     -8.86003104	      0.56246771	     -0.08858183	      0.00000000	     -8.27807392	     -5.46077431	     -5.45035377	    -39.97035775	     -5.45026718	     -7.78107354	      0.00000000	    -22.40122262	      6.40700021	      0.05171275
      4.53000000	      5.77395047	     -5.29040054	      1.42790517	     -2.51177924	      0.93125990	      0.22866381	      9.83475863	      8.31649260	     -3.92545552	     -9.03463502	      1.22802321	     -0.02038744	      0.00000000	     -6.76950390	     -5.95281100	     -5.83192710	    -42.74086553	     -8.91393523	     -9.71560153	      0.00000000	    -22.48104383	      6.51226811	      0.06172438
      4.54000000	      5.81017902	     -5.41204566	      1.48046183	     -2.50296681	      0.93235189	      0.23017913	      9.26001382	      8.58224169	     -3.87344610	     -9.14410220	      1.84921738	     -0.01681232	      0.00000000	     -5.24297668	     -6.38467912	     -6.06782177	    -45.40872984	    -11.91378403	    -11.76935775	      0.00000000	    -22.58869716	      6.61595326	      0.08903159
      4.55000000	      5.81366216	     -5.51752869	      1.53109781	     -2.49432397	      0.93335586	      0.23155926	      8.69023575	      8.83675227	     -3.75838048	     -9.17760824	      2.42617264	     -0.05212735	      0.00000000	     -3.67894750	     -6.73425219	     -6.15923165	    -47.96342750	    -14.20060389	    -13.81824188	      0.00000000	    -22.67800567	      6.70997843	      0.14479524
      4.56000000	      5.77381721	     -5.60106975	      1.56433873	     -2.48584436	      0.93427855	      0.23284207	      8.14720973	      9.06945120	     -3.61624839	     -9.15648567	      2.96298581	     -0.12674458	      0.00000000	     -2.08299487	     -7.00078050	     -6.17321469	    -50.37145829	    -15.61137097	    -15.81812398	      0.00000000	    -22.73236671	      6.77554321	      0.22891654
      4.57000000	      5.70514227	     -5.64817649	      1.56555688	     -2.47751402	      0.93516330	      0.23406417	      7.61880213	      9.26240614	     -3.46048545	     -9.09279249	      3.48161267	     -0.19896090	      0.00000000	     -0.49649125	     -7.17399718	     -6.16719275	    -52.57087671	    -16.10848288	    -17.78920822	      0.00000000	    -22.76488531	      6.78977512	      0.31557530
      4.58000000	      5.56974703	     -5.67648010	      1.54081743	     -2.46932538	      0.93596968	      0.23523577	      7.14722519	      9.42829627	     -3.32705320	     -8.98299232	      3.93184108	     -0.25929678	      0.00000000	      1.12474954	     -7.27738689	     -6.14117230	    -54.53975848	    -15.73006016	    -19.58277499	      0.00000000	    -22.71911991	      6.77873260	      0.45803300
      4.59000000	      5.41635519	     -5.66237604	      1.48863265	     -2.46125233	      0.93678230	      0.23636621	      6.68142870	      9.54256481	     -3.18501338	     -8.84218937	      4.38389731	     -0.28507490	      0.00000000	      2.70456921	     -7.28701692	     -6.11404123	    -56.20416207	    -14.69038383	    -21.21993279	      0.00000000	    -22.65454987	      6.71212488	      0.61452375
      4.60000000	      5.24445072	     -5.59828514	      1.41369412	     -2.45327113	      0.93760562	      0.23745799	      6.22488244	      9.59523432	     -3.03678603	     -8.67811276	      4.82945766	     -0.28125374	      0.00000000	      4.23969655	     -7.19854225	     -6.08596986	    -57.53469774	    -13.18775017	    -22.57973814	      0.00000000	    -22.56298644	      6.58320361	      0.78180741
      4.61000000	      5.04241354	     -5.48051247	      1.32056197	     -2.44539105	      0.93841226	      0.23850952	      5.81087029	      9.57964909	     -2.88777339	     -8.52976846	      5.25793758	     -0.25268253	      0.00000000	      5.74959368	     -7.01187414	     -6.05163574	    -58.53219218	    -11.40623200	    -23.50472911	      0.00000000	    -22.44024243	      6.38957258	      0.93951862
      4.62000000	      4.83875466	     -5.32465087	      1.22353239	     -2.43757983	      0.93922237	      0.23951415	      5.40294392	      9.51376050	     -2.72532930	     -8.38845623	      5.68961331	     -0.20041321	      0.00000000	      7.20604882	     -6.75387325	     -6.00292569	    -59.20899564	     -9.44825980	    -23.78373881	      0.00000000	    -22.31644040	      6.15447886	      1.10133570
      4.63000000	      4.66104333	     -5.13587579	      1.13262646	     -2.42980652	      0.94006284	      0.24045499	      4.96613896	      9.40226644	     -2.55970940	     -8.24504494	      6.13196299	     -0.13263951	      0.00000000	      8.57191674	     -6.43618599	     -5.93745288	    -59.56771162	     -7.46904042	    -23.40910069	      0.00000000	    -22.22412448	      5.88382951	      1.25815044
